<svg xmlns="http://www.w3.org/2000/svg" xmlns:xlink="http://www.w3.org/1999/xlink" width="500" zoomAndPan="magnify" viewBox="0 0 375 374.999991" height="500" preserveAspectRatio="xMidYMid meet" version="1.0"><defs><g/><clipPath id="47e849e6ac"><path d="M 76 194 L 198 194 L 198 243.800781 L 76 243.800781 Z M 76 194 " clip-rule="nonzero"/></clipPath><clipPath id="8dfb49b6c1"><path d="M 81 207 L 160 207 L 160 243.800781 L 81 243.800781 Z M 81 207 " clip-rule="nonzero"/></clipPath><clipPath id="63f5b576d4"><path d="M 68.203125 38 L 244.601562 38 L 244.601562 94 L 68.203125 94 Z M 68.203125 38 " clip-rule="nonzero"/></clipPath><clipPath id="3665816724"><path d="M 0.800781 78 L 328.878906 78 L 328.878906 194 L 0.800781 194 Z M 0.800781 78 " clip-rule="nonzero"/></clipPath><clipPath id="2c491a871b"><rect x="0" width="329" y="0" height="116"/></clipPath><clipPath id="bb0c1dcfdf"><rect x="0" width="329" y="0" height="283"/></clipPath></defs><g transform="matrix(1, 0, 0, 1, 28, 45)"><g clip-path="url(#bb0c1dcfdf)"><g fill="#181b13" fill-opacity="1"><g transform="translate(36.915949, 201.439488)"><g><path d="M 21.453125 5.875 L 8.171875 13.765625 L 6.34375 10.6875 L 11.796875 7.453125 L 8.21875 1.421875 L 2.765625 4.65625 L 0.9375 1.578125 L 14.21875 -6.3125 L 16.046875 -3.234375 L 10.8125 -0.125 L 14.390625 5.90625 L 19.625 2.796875 Z M 21.453125 5.875 "/></g></g></g><g fill="#181b13" fill-opacity="1"><g transform="translate(52.556457, 225.417446)"><g><path d="M 11.359375 8.34375 L 9.21875 10.265625 L 1.21875 1.359375 L 12.703125 -8.96875 L 20.515625 -0.28125 L 18.390625 1.640625 L 12.96875 -4.390625 L 10.46875 -2.15625 L 15.265625 3.171875 L 13.203125 5.03125 L 8.40625 -0.296875 L 5.75 2.09375 Z M 11.359375 8.34375 "/></g></g></g><g fill="#181b13" fill-opacity="1"><g transform="translate(70.357288, 243.811525)"><g><path d="M 11.578125 4.578125 L 5.84375 0.265625 L 2.765625 2.09375 L -0.15625 -0.125 L 14.640625 -8.328125 L 17.46875 -6.203125 L 13.6875 10.296875 L 10.6875 8.046875 Z M 12.328125 1.734375 L 13.90625 -4.453125 L 8.40625 -1.21875 Z M 12.328125 1.734375 "/></g></g></g><g fill="#181b13" fill-opacity="1"><g transform="translate(93.121457, 259.474808)"><g><path d="M 8.46875 -13.046875 L 11.671875 -11.46875 L 6.140625 -0.234375 L 13.09375 3.1875 L 11.796875 5.8125 L 1.640625 0.8125 Z M 8.46875 -13.046875 "/></g></g></g><g fill="#181b13" fill-opacity="1"><g transform="translate(115.020689, 269.239516)"><g><path d="M 8.328125 -10.640625 L 3.59375 -12.015625 L 4.40625 -14.8125 L 17.34375 -11.0625 L 16.53125 -8.265625 L 11.765625 -9.640625 L 8.265625 2.40625 L 4.828125 1.40625 Z M 8.328125 -10.640625 "/></g></g></g><g fill="#181b13" fill-opacity="1"><g transform="translate(138.696606, 275.243975)"><g><path d="M 17.328125 -13.953125 L 15.9375 1.4375 L 12.390625 1.125 L 12.96875 -5.1875 L 5.96875 -5.828125 L 5.390625 0.484375 L 1.828125 0.171875 L 3.21875 -15.21875 L 6.78125 -14.90625 L 6.234375 -8.84375 L 13.234375 -8.203125 L 13.78125 -14.265625 Z M 17.328125 -13.953125 "/></g></g></g><g fill="#181b13" fill-opacity="1"><g transform="translate(167.295362, 276.622702)"><g><path d="M 8.625 -6.421875 L 9.203125 -0.984375 L 5.640625 -0.609375 L 5.046875 -6.09375 L -1.953125 -15.328125 L 1.828125 -15.734375 L 6.640625 -9.359375 L 10.046875 -16.609375 L 13.515625 -16.984375 Z M 8.625 -6.421875 "/></g></g></g><g fill="#181b13" fill-opacity="1"><g transform="translate(192.394159, 272.795)"><g/></g></g><g fill="#181b13" fill-opacity="1"><g transform="translate(208.424893, 268.031404)"><g><path d="M -0.046875 -13.6875 L 1.5625 -9.953125 L 8.140625 -12.796875 L 9.296875 -10.15625 L 2.71875 -7.3125 L 4.953125 -2.15625 L 1.671875 -0.734375 L -4.484375 -14.90625 L 6.25 -19.546875 L 7.40625 -16.90625 Z M -0.046875 -13.6875 "/></g></g></g><g fill="#181b13" fill-opacity="1"><g transform="translate(230.943372, 257.342033)"><g><path d="M 7.8125 -5.09375 C 6.488281 -4.175781 5.097656 -3.632812 3.640625 -3.46875 C 2.191406 -3.300781 0.820312 -3.507812 -0.46875 -4.09375 C -1.757812 -4.675781 -2.835938 -5.59375 -3.703125 -6.84375 C -4.566406 -8.082031 -5.046875 -9.40625 -5.140625 -10.8125 C -5.234375 -12.226562 -4.945312 -13.585938 -4.28125 -14.890625 C -3.613281 -16.203125 -2.617188 -17.316406 -1.296875 -18.234375 C 0.015625 -19.140625 1.390625 -19.671875 2.828125 -19.828125 C 4.273438 -19.992188 5.644531 -19.785156 6.9375 -19.203125 C 8.238281 -18.628906 9.320312 -17.722656 10.1875 -16.484375 C 11.050781 -15.234375 11.523438 -13.898438 11.609375 -12.484375 C 11.703125 -11.066406 11.421875 -9.707031 10.765625 -8.40625 C 10.109375 -7.101562 9.125 -6 7.8125 -5.09375 Z M 6.078125 -7.59375 C 6.828125 -8.113281 7.378906 -8.753906 7.734375 -9.515625 C 8.097656 -10.285156 8.238281 -11.097656 8.15625 -11.953125 C 8.070312 -12.804688 7.757812 -13.628906 7.21875 -14.421875 C 6.675781 -15.203125 6.015625 -15.78125 5.234375 -16.15625 C 4.460938 -16.539062 3.65625 -16.691406 2.8125 -16.609375 C 1.976562 -16.535156 1.1875 -16.238281 0.4375 -15.71875 C -0.3125 -15.195312 -0.867188 -14.554688 -1.234375 -13.796875 C -1.609375 -13.035156 -1.75 -12.226562 -1.65625 -11.375 C -1.570312 -10.519531 -1.257812 -9.703125 -0.71875 -8.921875 C -0.175781 -8.128906 0.476562 -7.539062 1.25 -7.15625 C 2.019531 -6.78125 2.828125 -6.628906 3.671875 -6.703125 C 4.523438 -6.773438 5.328125 -7.070312 6.078125 -7.59375 Z M 6.078125 -7.59375 "/></g></g></g><g fill="#181b13" fill-opacity="1"><g transform="translate(254.549584, 239.541515)"><g><path d="M 6.53125 -6.625 C 5.4375 -5.445312 4.195312 -4.625 2.8125 -4.15625 C 1.4375 -3.695312 0.0546875 -3.613281 -1.328125 -3.90625 C -2.710938 -4.195312 -3.960938 -4.859375 -5.078125 -5.890625 C -6.179688 -6.921875 -6.925781 -8.117188 -7.3125 -9.484375 C -7.707031 -10.847656 -7.71875 -12.234375 -7.34375 -13.640625 C -6.976562 -15.054688 -6.25 -16.351562 -5.15625 -17.53125 C -4.0625 -18.707031 -2.820312 -19.523438 -1.4375 -19.984375 C -0.0625 -20.453125 1.316406 -20.539062 2.703125 -20.25 C 4.097656 -19.957031 5.347656 -19.296875 6.453125 -18.265625 C 7.566406 -17.234375 8.316406 -16.035156 8.703125 -14.671875 C 9.085938 -13.304688 9.09375 -11.914062 8.71875 -10.5 C 8.351562 -9.09375 7.625 -7.800781 6.53125 -6.625 Z M 4.3125 -8.703125 C 4.9375 -9.367188 5.34375 -10.117188 5.53125 -10.953125 C 5.71875 -11.785156 5.679688 -12.609375 5.421875 -13.421875 C 5.171875 -14.242188 4.695312 -14.976562 4 -15.625 C 3.300781 -16.269531 2.53125 -16.695312 1.6875 -16.90625 C 0.84375 -17.113281 0.0195312 -17.085938 -0.78125 -16.828125 C -1.582031 -16.578125 -2.296875 -16.117188 -2.921875 -15.453125 C -3.535156 -14.785156 -3.941406 -14.039062 -4.140625 -13.21875 C -4.347656 -12.394531 -4.316406 -11.570312 -4.046875 -10.75 C -3.773438 -9.925781 -3.289062 -9.191406 -2.59375 -8.546875 C -1.894531 -7.898438 -1.128906 -7.472656 -0.296875 -7.265625 C 0.523438 -7.066406 1.34375 -7.085938 2.15625 -7.328125 C 2.976562 -7.578125 3.695312 -8.035156 4.3125 -8.703125 Z M 4.3125 -8.703125 "/></g></g></g><g fill="#181b13" fill-opacity="1"><g transform="translate(273.808919, 217.124891)"><g><path d="M -12.34375 -9.484375 L -8.75 -15.515625 C -7.882812 -16.953125 -6.847656 -18.0625 -5.640625 -18.84375 C -4.429688 -19.625 -3.144531 -20.019531 -1.78125 -20.03125 C -0.414062 -20.050781 0.925781 -19.664062 2.25 -18.875 C 3.582031 -18.082031 4.5625 -17.082031 5.1875 -15.875 C 5.820312 -14.675781 6.085938 -13.359375 5.984375 -11.921875 C 5.878906 -10.484375 5.394531 -9.046875 4.53125 -7.609375 L 0.9375 -1.578125 Z M 1.90625 -8.953125 C 2.695312 -10.285156 2.957031 -11.566406 2.6875 -12.796875 C 2.425781 -14.023438 1.660156 -15.015625 0.390625 -15.765625 C -0.867188 -16.515625 -2.101562 -16.71875 -3.3125 -16.375 C -4.519531 -16.03125 -5.519531 -15.191406 -6.3125 -13.859375 L -7.984375 -11.046875 L 0.234375 -6.140625 Z M 1.90625 -8.953125 "/></g></g></g><g fill="#181b13" fill-opacity="1"><g transform="translate(41.231034, 91.283503)"><g><path d="M -4.3125 -21.8125 L 8.671875 -13.4375 L 7.078125 -10.96875 L -4.984375 -9.59375 L 2.90625 -4.5 L 0.984375 -1.53125 L -12 -9.90625 L -10.390625 -12.40625 L 1.65625 -13.78125 L -6.21875 -18.859375 Z M -4.3125 -21.8125 "/></g></g></g><g fill="#181b13" fill-opacity="1"><g transform="translate(56.443567, 69.37085)"><g><path d="M 5.953125 -10.9375 L 0.96875 -5.765625 L 2.40625 -2.5 L -0.140625 0.140625 L -6.484375 -15.546875 L -4.03125 -18.09375 L 11.890625 -12.328125 L 9.296875 -9.625 Z M 3.21875 -12.015625 L -2.734375 -14.375 L -0.1875 -8.5 Z M 3.21875 -12.015625 "/></g></g></g><g fill="#181b13" fill-opacity="1"><g transform="translate(75.062145, 51.453284)"><g><path d="M -3.25 -13.125 L -7.25 -10.25 L -8.9375 -12.609375 L 2 -20.453125 L 3.6875 -18.09375 L -0.34375 -15.21875 L 6.984375 -5.03125 L 4.078125 -2.9375 Z M -3.25 -13.125 "/></g></g></g><g fill="#181b13" fill-opacity="1"><g transform="translate(93.769558, 38.806643)"><g><path d="M 7.984375 -3.484375 C 5.984375 -2.535156 4.164062 -2.351562 2.53125 -2.9375 C 0.90625 -3.519531 -0.390625 -4.832031 -1.359375 -6.875 L -5.046875 -14.703125 L -1.8125 -16.21875 L 1.8125 -8.515625 C 3 -6.015625 4.628906 -5.253906 6.703125 -6.234375 C 7.710938 -6.710938 8.335938 -7.382812 8.578125 -8.25 C 8.828125 -9.113281 8.644531 -10.1875 8.03125 -11.46875 L 4.40625 -19.171875 L 7.609375 -20.671875 L 11.296875 -12.84375 C 12.265625 -10.800781 12.453125 -8.960938 11.859375 -7.328125 C 11.265625 -5.703125 9.972656 -4.421875 7.984375 -3.484375 Z M 7.984375 -3.484375 "/></g></g></g><g fill="#181b13" fill-opacity="1"><g transform="translate(117.882797, 28.413341)"><g><path d="M 11.3125 -2.890625 L 7.375 -6.328125 L 7.1875 -6.28125 L 4.171875 -5.515625 L 5.234375 -1.34375 L 1.765625 -0.453125 L -2.0625 -15.421875 L 4.421875 -17.078125 C 5.753906 -17.421875 6.960938 -17.492188 8.046875 -17.296875 C 9.140625 -17.109375 10.054688 -16.675781 10.796875 -16 C 11.535156 -15.320312 12.046875 -14.425781 12.328125 -13.3125 C 12.609375 -12.207031 12.582031 -11.179688 12.25 -10.234375 C 11.925781 -9.285156 11.320312 -8.472656 10.4375 -7.796875 L 15.03125 -3.84375 Z M 8.8125 -12.40625 C 8.59375 -13.257812 8.15625 -13.84375 7.5 -14.15625 C 6.84375 -14.46875 5.992188 -14.488281 4.953125 -14.21875 L 2.125 -13.5 L 3.453125 -8.28125 L 6.28125 -9 C 7.320312 -9.269531 8.054688 -9.695312 8.484375 -10.28125 C 8.910156 -10.875 9.019531 -11.582031 8.8125 -12.40625 Z M 8.8125 -12.40625 "/></g></g></g><g fill="#181b13" fill-opacity="1"><g transform="translate(142.392334, 22.974752)"><g><path d="M 11.796875 -4.046875 L 4.609375 -3.609375 L 3.46875 -0.21875 L -0.203125 0.015625 L 5.71875 -15.828125 L 9.25 -16.046875 L 17.09375 -1.046875 L 13.34375 -0.828125 Z M 10.5 -6.6875 L 7.6875 -12.4375 L 5.59375 -6.375 Z M 10.5 -6.6875 "/></g></g></g><g fill="#181b13" fill-opacity="1"><g transform="translate(168.230754, 22.347992)"><g><path d="M 3.625 -15.125 L 7.1875 -14.703125 L 5.71875 -2.265625 L 13.40625 -1.359375 L 13.0625 1.546875 L 1.8125 0.21875 Z M 3.625 -15.125 "/></g></g></g><g fill="#181b13" fill-opacity="1"><g transform="translate(190.481037, 25.880356)"><g/></g></g><g fill="#181b13" fill-opacity="1"><g transform="translate(205.315963, 30.198593)"><g><path d="M 9.90625 -9.453125 L 8.296875 -5.6875 L 14.890625 -2.890625 L 13.765625 -0.25 L 7.171875 -3.046875 L 4.96875 2.125 L 1.6875 0.71875 L 7.75 -13.5 L 18.5 -8.921875 L 17.375 -6.28125 Z M 9.90625 -9.453125 "/></g></g></g><g fill="#181b13" fill-opacity="1"><g transform="translate(226.231482, 39.787536)"><g><path d="M 7.59375 5.40625 C 6.257812 4.507812 5.25 3.414062 4.5625 2.125 C 3.882812 0.84375 3.578125 -0.503906 3.640625 -1.921875 C 3.710938 -3.335938 4.175781 -4.675781 5.03125 -5.9375 C 5.863281 -7.195312 6.921875 -8.125 8.203125 -8.71875 C 9.484375 -9.320312 10.847656 -9.554688 12.296875 -9.421875 C 13.753906 -9.285156 15.148438 -8.769531 16.484375 -7.875 C 17.816406 -6.976562 18.820312 -5.882812 19.5 -4.59375 C 20.175781 -3.300781 20.476562 -1.945312 20.40625 -0.53125 C 20.34375 0.875 19.894531 2.207031 19.0625 3.46875 C 18.207031 4.726562 17.140625 5.660156 15.859375 6.265625 C 14.578125 6.867188 13.210938 7.097656 11.765625 6.953125 C 10.316406 6.816406 8.925781 6.300781 7.59375 5.40625 Z M 9.28125 2.875 C 10.039062 3.382812 10.84375 3.664062 11.6875 3.71875 C 12.53125 3.78125 13.335938 3.613281 14.109375 3.21875 C 14.878906 2.832031 15.535156 2.242188 16.078125 1.453125 C 16.597656 0.660156 16.890625 -0.160156 16.953125 -1.015625 C 17.023438 -1.878906 16.875 -2.6875 16.5 -3.4375 C 16.125 -4.195312 15.554688 -4.832031 14.796875 -5.34375 C 14.046875 -5.851562 13.242188 -6.140625 12.390625 -6.203125 C 11.546875 -6.265625 10.738281 -6.097656 9.96875 -5.703125 C 9.195312 -5.304688 8.550781 -4.710938 8.03125 -3.921875 C 7.488281 -3.128906 7.179688 -2.304688 7.109375 -1.453125 C 7.046875 -0.597656 7.203125 0.207031 7.578125 0.96875 C 7.960938 1.726562 8.53125 2.363281 9.28125 2.875 Z M 9.28125 2.875 "/></g></g></g><g fill="#181b13" fill-opacity="1"><g transform="translate(248.492457, 55.785097)"><g><path d="M 6.34375 6.828125 C 5.21875 5.679688 4.453125 4.40625 4.046875 3 C 3.640625 1.601562 3.613281 0.21875 3.96875 -1.15625 C 4.320312 -2.53125 5.039062 -3.75 6.125 -4.8125 C 7.195312 -5.875 8.421875 -6.566406 9.796875 -6.890625 C 11.179688 -7.222656 12.570312 -7.171875 13.96875 -6.734375 C 15.363281 -6.304688 16.625 -5.519531 17.75 -4.375 C 18.875 -3.226562 19.632812 -1.957031 20.03125 -0.5625 C 20.4375 0.832031 20.460938 2.21875 20.109375 3.59375 C 19.753906 4.96875 19.039062 6.1875 17.96875 7.25 C 16.882812 8.3125 15.648438 9.003906 14.265625 9.328125 C 12.890625 9.660156 11.503906 9.613281 10.109375 9.1875 C 8.722656 8.757812 7.46875 7.972656 6.34375 6.828125 Z M 8.515625 4.6875 C 9.148438 5.34375 9.875 5.78125 10.6875 6 C 11.507812 6.226562 12.332031 6.234375 13.15625 6.015625 C 13.988281 5.796875 14.75 5.347656 15.4375 4.671875 C 16.113281 4.003906 16.570312 3.253906 16.8125 2.421875 C 17.050781 1.597656 17.0625 0.78125 16.84375 -0.03125 C 16.625 -0.84375 16.195312 -1.578125 15.5625 -2.234375 C 14.925781 -2.878906 14.195312 -3.316406 13.375 -3.546875 C 12.5625 -3.785156 11.738281 -3.789062 10.90625 -3.5625 C 10.082031 -3.332031 9.332031 -2.882812 8.65625 -2.21875 C 7.96875 -1.539062 7.503906 -0.796875 7.265625 0.015625 C 7.023438 0.835938 7.015625 1.660156 7.234375 2.484375 C 7.453125 3.304688 7.878906 4.039062 8.515625 4.6875 Z M 8.515625 4.6875 "/></g></g></g><g fill="#181b13" fill-opacity="1"><g transform="translate(267.049936, 75.973955)"><g><path d="M 13.96875 -6.859375 L 17.78125 -0.953125 C 18.695312 0.453125 19.234375 1.867188 19.390625 3.296875 C 19.554688 4.722656 19.34375 6.050781 18.75 7.28125 C 18.164062 8.519531 17.226562 9.554688 15.9375 10.390625 C 14.625 11.234375 13.285156 11.671875 11.921875 11.703125 C 10.566406 11.734375 9.269531 11.378906 8.03125 10.640625 C 6.800781 9.910156 5.726562 8.84375 4.8125 7.4375 L 1 1.53125 Z M 7.1875 5.6875 C 8.019531 6.988281 9.046875 7.789062 10.265625 8.09375 C 11.484375 8.394531 12.71875 8.144531 13.96875 7.34375 C 15.195312 6.539062 15.921875 5.519531 16.140625 4.28125 C 16.359375 3.050781 16.050781 1.785156 15.21875 0.484375 L 13.4375 -2.265625 L 5.40625 2.9375 Z M 7.1875 5.6875 "/></g></g></g><g clip-path="url(#47e849e6ac)"><path fill="#80c244" d="M 197.160156 236.972656 C 192.53125 230.679688 187.257812 224.984375 181.335938 219.886719 C 175.414062 214.785156 168.996094 210.414062 162.082031 206.765625 C 158.835938 205.066406 155.511719 203.539062 152.101562 202.1875 C 148.695312 200.839844 145.226562 199.671875 141.695312 198.691406 C 138.164062 197.710938 134.589844 196.917969 130.972656 196.316406 C 127.359375 195.710938 123.71875 195.300781 120.0625 195.085938 C 116.402344 194.871094 112.742188 194.847656 109.078125 195.019531 C 105.417969 195.191406 101.773438 195.558594 98.152344 196.117188 C 94.527344 196.675781 90.945312 197.421875 87.402344 198.363281 C 83.859375 199.300781 80.375 200.425781 76.953125 201.734375 C 78.613281 203.992188 80.363281 206.175781 82.203125 208.292969 C 84.039062 210.40625 85.964844 212.441406 87.96875 214.402344 C 89.972656 216.359375 92.054688 218.234375 94.214844 220.023438 C 96.371094 221.8125 98.597656 223.507812 100.898438 225.117188 C 103.195312 226.726562 105.550781 228.238281 107.972656 229.652344 C 110.394531 231.070312 112.867188 232.382812 115.394531 233.597656 C 117.925781 234.8125 120.496094 235.921875 123.117188 236.929688 C 125.734375 237.933594 128.390625 238.832031 131.082031 239.621094 C 133.773438 240.410156 136.496094 241.089844 139.242188 241.65625 C 141.988281 242.222656 144.757812 242.679688 147.539062 243.023438 C 150.324219 243.367188 153.121094 243.59375 155.921875 243.710938 C 158.726562 243.824219 161.53125 243.828125 164.332031 243.714844 C 167.136719 243.601562 169.929688 243.375 172.714844 243.035156 C 175.5 242.699219 178.269531 242.246094 181.015625 241.679688 C 183.765625 241.117188 186.484375 240.441406 189.179688 239.652344 C 191.871094 238.867188 194.527344 237.972656 197.148438 236.972656 Z M 197.160156 236.972656 " fill-opacity="1" fill-rule="evenodd"/></g><path fill="#80c244" d="M 197.109375 236.894531 L 197.109375 236.972656 C 205.4375 233.757812 213.214844 229.542969 220.449219 224.320312 C 227.683594 219.101562 234.132812 213.046875 239.796875 206.160156 C 234.136719 203.917969 228.320312 202.191406 222.355469 200.972656 C 216.390625 199.757812 210.363281 199.070312 204.277344 198.914062 C 198.1875 198.761719 192.132812 199.136719 186.113281 200.050781 C 180.09375 200.960938 174.199219 202.390625 168.429688 204.339844 C 174.308594 208.695312 179.660156 213.617188 184.496094 219.105469 C 189.328125 224.589844 193.53125 230.519531 197.109375 236.894531 Z M 197.109375 236.894531 " fill-opacity="1" fill-rule="evenodd"/><g clip-path="url(#8dfb49b6c1)"><path fill="#ffffff" d="M 159.507812 243.785156 C 157.113281 240.953125 154.574219 238.257812 151.886719 235.703125 C 149.199219 233.144531 146.382812 230.738281 143.4375 228.484375 C 140.488281 226.230469 137.429688 224.144531 134.253906 222.222656 C 131.082031 220.296875 127.8125 218.550781 124.449219 216.980469 C 121.089844 215.410156 117.648438 214.027344 114.136719 212.828125 C 110.625 211.632812 107.054688 210.625 103.433594 209.8125 C 99.8125 209 96.15625 208.382812 92.46875 207.964844 C 88.777344 207.546875 85.078125 207.328125 81.363281 207.308594 L 82.023438 208.085938 C 85.179688 208.460938 88.316406 208.984375 91.421875 209.648438 C 94.53125 210.316406 97.605469 211.125 100.636719 212.078125 C 103.671875 213.027344 106.65625 214.117188 109.589844 215.34375 C 112.519531 216.570312 115.390625 217.929688 118.195312 219.421875 C 121.003906 220.914062 123.734375 222.535156 126.390625 224.28125 C 129.046875 226.023438 131.617188 227.886719 134.097656 229.871094 C 136.582031 231.855469 138.96875 233.945312 141.253906 236.152344 C 143.542969 238.355469 145.726562 240.65625 147.800781 243.0625 C 148.226562 243.0625 148.652344 243.167969 149.09375 243.191406 C 149.53125 243.21875 150.152344 243.320312 150.699219 243.359375 C 153.027344 243.566406 155.378906 243.707031 157.761719 243.746094 C 158.335938 243.746094 158.917969 243.746094 159.507812 243.746094 Z M 159.507812 243.785156 " fill-opacity="1" fill-rule="evenodd"/></g><path fill="#ffffff" d="M 99.449219 202.070312 C 103.1875 202.25 106.90625 202.636719 110.605469 203.226562 C 114.304688 203.8125 117.960938 204.597656 121.574219 205.585938 C 125.1875 206.570312 128.734375 207.75 132.21875 209.121094 C 135.699219 210.492188 139.101562 212.050781 142.414062 213.792969 C 145.726562 215.535156 148.933594 217.449219 152.039062 219.539062 C 155.144531 221.632812 158.125 223.886719 160.980469 226.300781 C 163.839844 228.714844 166.554688 231.28125 169.132812 233.992188 C 171.710938 236.703125 174.132812 239.546875 176.398438 242.519531 C 179.632812 242.019531 182.867188 241.347656 185.933594 240.546875 C 183.527344 237.539062 180.960938 234.675781 178.230469 231.957031 C 175.503906 229.238281 172.632812 226.683594 169.613281 224.285156 C 166.597656 221.890625 163.457031 219.667969 160.191406 217.625 C 156.925781 215.582031 153.554688 213.726562 150.078125 212.058594 C 146.601562 210.390625 143.046875 208.925781 139.40625 207.660156 C 135.765625 206.390625 132.0625 205.332031 128.304688 204.480469 C 124.542969 203.625 120.75 202.988281 116.917969 202.558594 C 113.085938 202.132812 109.242188 201.921875 105.386719 201.925781 C 103.394531 201.925781 101.414062 201.925781 99.449219 202.070312 Z M 99.449219 202.070312 " fill-opacity="1" fill-rule="evenodd"/><path fill="#ffffff" d="M 182.699219 217.082031 C 193.039062 211.265625 204.058594 207.367188 215.761719 205.386719 C 209.4375 205.550781 203.183594 206.292969 196.996094 207.613281 C 190.808594 208.933594 184.796875 210.8125 178.960938 213.246094 C 180.242188 214.484375 181.484375 215.765625 182.699219 217.082031 Z M 182.699219 217.082031 " fill-opacity="1" fill-rule="evenodd"/><path fill="#ffffff" d="M 230.625 213.144531 C 223.261719 213.335938 216.007812 214.308594 208.855469 216.058594 C 201.703125 217.8125 194.824219 220.304688 188.210938 223.535156 C 189.503906 225.097656 190.628906 226.710938 191.765625 228.335938 C 197.652344 224.5 203.867188 221.304688 210.414062 218.746094 C 216.957031 216.1875 223.695312 214.320312 230.625 213.144531 Z M 230.625 213.144531 " fill-opacity="1" fill-rule="evenodd"/><g clip-path="url(#63f5b576d4)"><path fill="#80c244" d="M 161.199219 89.039062 C 190.421875 82.273438 214.519531 67.765625 244.230469 81.292969 C 241.882812 77.992188 239.347656 74.839844 236.628906 71.835938 C 233.90625 68.835938 231.019531 66.003906 227.960938 63.339844 C 224.90625 60.679688 221.703125 58.207031 218.351562 55.921875 C 215.003906 53.636719 211.53125 51.558594 207.933594 49.683594 C 204.339844 47.808594 200.644531 46.152344 196.851562 44.710938 C 193.0625 43.273438 189.195312 42.0625 185.261719 41.078125 C 181.324219 40.09375 177.347656 39.34375 173.320312 38.832031 C 169.296875 38.316406 165.257812 38.039062 161.199219 38 L 160.140625 38 C 157.792969 38 155.445312 38.078125 153.105469 38.238281 C 150.761719 38.398438 148.425781 38.636719 146.101562 38.953125 C 143.773438 39.269531 141.460938 39.667969 139.164062 40.144531 C 136.863281 40.621094 134.582031 41.171875 132.324219 41.804688 C 130.0625 42.433594 127.824219 43.140625 125.613281 43.925781 C 123.398438 44.710938 121.214844 45.566406 119.0625 46.5 C 116.90625 47.433594 114.789062 48.4375 112.703125 49.511719 C 110.617188 50.589844 108.570312 51.738281 106.5625 52.953125 C 104.558594 54.167969 102.59375 55.453125 100.675781 56.804688 C 98.757812 58.152344 96.886719 59.566406 95.0625 61.042969 C 93.242188 62.523438 91.472656 64.058594 89.753906 65.660156 C 88.039062 67.257812 86.378906 68.910156 84.773438 70.625 C 83.171875 72.335938 81.628906 74.097656 80.144531 75.914062 C 78.664062 77.730469 77.242188 79.597656 75.890625 81.511719 C 74.535156 83.425781 73.246094 85.382812 72.023438 87.382812 C 70.804688 89.382812 69.652344 91.425781 68.570312 93.503906 C 68.570312 93.503906 77.625 80.777344 93.871094 83.253906 C 103.40625 74.453125 123.792969 60.164062 158.394531 56.40625 C 158.394531 56.40625 122.835938 67.726562 105.527344 86.871094 C 126.949219 94.1875 144.890625 92.820312 161.199219 89.039062 Z M 161.199219 89.039062 " fill-opacity="1" fill-rule="evenodd"/></g><path fill="#ffffff" d="M 97.027344 67.6875 C 101.378906 63.894531 106.035156 60.523438 111 57.574219 C 115.960938 54.621094 121.148438 52.140625 126.5625 50.125 C 131.976562 48.109375 137.527344 46.597656 143.214844 45.585938 C 148.902344 44.574219 154.632812 44.082031 160.410156 44.105469 C 165.039062 44.085938 169.640625 44.398438 174.222656 45.039062 C 178.804688 45.683594 183.316406 46.648438 187.761719 47.9375 C 192.203125 49.226562 196.53125 50.824219 200.742188 52.734375 C 204.953125 54.644531 209.007812 56.847656 212.902344 59.335938 C 209.199219 56.382812 205.277344 53.753906 201.136719 51.453125 C 196.996094 49.148438 192.691406 47.207031 188.226562 45.617188 C 183.757812 44.03125 179.191406 42.824219 174.523438 41.996094 C 169.855469 41.167969 165.152344 40.730469 160.410156 40.6875 L 159.480469 40.6875 C 156.5625 40.6875 153.648438 40.835938 150.746094 41.132812 C 147.84375 41.429688 144.960938 41.875 142.101562 42.464844 C 139.246094 43.058594 136.425781 43.792969 133.640625 44.671875 C 130.859375 45.550781 128.128906 46.570312 125.449219 47.726562 C 122.769531 48.886719 120.160156 50.175781 117.613281 51.601562 C 115.066406 53.027344 112.601562 54.578125 110.214844 56.253906 C 107.828125 57.929688 105.53125 59.722656 103.328125 61.636719 C 101.125 63.546875 99.023438 65.5625 97.027344 67.6875 Z M 97.027344 67.6875 " fill-opacity="1" fill-rule="evenodd"/><path fill="#ffffff" d="M 114.464844 85.21875 C 124.5625 77.367188 135.703125 71.476562 147.878906 67.535156 C 152.246094 66.089844 156.675781 64.886719 161.175781 63.917969 C 156.761719 64.191406 152.40625 64.855469 148.113281 65.914062 C 143.816406 66.972656 139.652344 68.402344 135.617188 70.210938 C 131.582031 72.019531 127.742188 74.171875 124.097656 76.671875 C 120.453125 79.171875 117.058594 81.976562 113.921875 85.089844 Z M 114.464844 85.21875 " fill-opacity="1" fill-rule="evenodd"/><g clip-path="url(#3665816724)"><g transform="matrix(1, 0, 0, 1, 0, 78)"><g clip-path="url(#2c491a871b)"><g fill="#181b13" fill-opacity="1"><g transform="translate(1.032085, 89.905733)"><g><path d="M 9.390625 0 C 6.921875 -0.300781 5.113281 -1.398438 3.96875 -3.296875 C 2.832031 -5.191406 2.5625 -7.253906 3.15625 -9.484375 L 15.453125 -55.640625 C 14.722656 -56.484375 14.144531 -57.476562 13.71875 -58.625 C 13.300781 -59.769531 13.003906 -60.851562 12.828125 -61.875 C 12.765625 -62.351562 12.898438 -62.757812 13.234375 -63.09375 C 13.566406 -63.425781 13.972656 -63.53125 14.453125 -63.40625 L 17.4375 -63.234375 L 19.875 -63.234375 C 22.757812 -63.234375 25.148438 -63.351562 27.046875 -63.59375 C 28.953125 -63.832031 30.640625 -64.070312 32.109375 -64.3125 C 33.585938 -64.550781 35.078125 -64.671875 36.578125 -64.671875 C 38.742188 -64.671875 40.398438 -63.976562 41.546875 -62.59375 C 42.691406 -61.207031 43.503906 -59.644531 43.984375 -57.90625 C 44.109375 -57.414062 44.035156 -56.988281 43.765625 -56.625 C 43.492188 -56.269531 43.117188 -56.09375 42.640625 -56.09375 L 36.859375 -55.90625 C 35.523438 -55.851562 33.773438 -55.71875 31.609375 -55.5 C 29.441406 -55.289062 27.304688 -55.035156 25.203125 -54.734375 L 24.9375 -53.5625 L 18.515625 -29.53125 L 23.296875 -30.078125 C 25.890625 -30.378906 28.054688 -29.894531 29.796875 -28.625 C 31.546875 -27.363281 32.421875 -25.710938 32.421875 -23.671875 C 32.421875 -23.003906 32.03125 -22.609375 31.25 -22.484375 L 16.34375 -21.140625 L 10.9375 -0.90625 C 10.75 -0.175781 10.234375 0.125 9.390625 0 Z M 9.390625 0 "/></g></g></g><g fill="#181b13" fill-opacity="1"><g transform="translate(35.172176, 89.905733)"><g><path d="M 47.78125 -20.140625 C 49.707031 -18.941406 50.398438 -17.40625 49.859375 -15.53125 C 48.171875 -10.414062 46.046875 -6.304688 43.484375 -3.203125 C 40.929688 -0.109375 37.425781 1.4375 32.96875 1.4375 C 30.320312 1.4375 28.15625 1.0625 26.46875 0.3125 C 24.78125 -0.4375 23.632812 -1.773438 23.03125 -3.703125 C 22.25 -2.554688 21.453125 -1.648438 20.640625 -0.984375 C 19.828125 -0.328125 18.9375 0 17.96875 0 C 13.695312 1.75 10.207031 1.804688 7.5 0.171875 C 4.789062 -1.453125 3.101562 -4.414062 2.4375 -8.71875 C 1.769531 -13.019531 2.34375 -18.242188 4.15625 -24.390625 C 5.539062 -28.898438 7.222656 -32.828125 9.203125 -36.171875 C 11.191406 -39.515625 13.539062 -42.054688 16.25 -43.796875 C 18.96875 -45.546875 22.039062 -46.273438 25.46875 -45.984375 C 26.789062 -46.460938 28.082031 -46.351562 29.34375 -45.65625 C 30.613281 -44.96875 31.640625 -43.78125 32.421875 -42.09375 L 33.515625 -45.53125 C 33.691406 -46.125 34.082031 -46.421875 34.6875 -46.421875 C 37.394531 -46.421875 39.226562 -45.488281 40.1875 -43.625 C 41.15625 -41.757812 40.914062 -38.359375 39.46875 -33.421875 L 34.140625 -15.53125 C 33.117188 -12.101562 32.742188 -9.664062 33.015625 -8.21875 C 33.285156 -6.769531 34.320312 -6.046875 36.125 -6.046875 C 37.09375 -6.046875 38.175781 -6.316406 39.375 -6.859375 C 40.582031 -7.398438 41.847656 -8.648438 43.171875 -10.609375 C 44.503906 -12.566406 45.800781 -15.65625 47.0625 -19.875 C 47.175781 -20.289062 47.414062 -20.378906 47.78125 -20.140625 Z M 15.453125 -4.609375 C 16.410156 -4.367188 17.398438 -4.679688 18.421875 -5.546875 C 19.453125 -6.421875 20.429688 -7.640625 21.359375 -9.203125 C 22.296875 -10.773438 23.066406 -12.523438 23.671875 -14.453125 C 23.910156 -15.359375 24.164062 -16.289062 24.4375 -17.25 C 24.707031 -18.21875 25.019531 -19.242188 25.375 -20.328125 L 27.453125 -26.828125 C 28.722656 -30.921875 29.328125 -34.171875 29.265625 -36.578125 C 29.203125 -38.992188 28.117188 -40.203125 26.015625 -40.203125 C 23.960938 -40.203125 21.851562 -38.816406 19.6875 -36.046875 C 17.519531 -33.273438 15.5625 -29.023438 13.8125 -23.296875 C 12.976562 -20.410156 12.378906 -17.6875 12.015625 -15.125 C 11.648438 -12.570312 11.722656 -10.375 12.234375 -8.53125 C 12.742188 -6.695312 13.816406 -5.390625 15.453125 -4.609375 Z M 15.453125 -4.609375 "/></g></g></g><g fill="#181b13" fill-opacity="1"><g transform="translate(78.705304, 89.905733)"><g><path d="M 40.46875 -20.140625 C 42.394531 -18.941406 43.085938 -17.40625 42.546875 -15.53125 C 41.035156 -10.832031 38.957031 -7.265625 36.3125 -4.828125 C 33.664062 -2.390625 30.640625 -0.75 27.234375 0.09375 C 23.828125 0.9375 20.171875 1.359375 16.265625 1.359375 C 9.515625 1.359375 4.316406 -0.234375 0.671875 -3.421875 C -2.960938 -6.617188 -4.78125 -10.65625 -4.78125 -15.53125 C -4.78125 -17.945312 -4.222656 -19.738281 -3.109375 -20.90625 C -1.992188 -22.082031 -0.65625 -22.789062 0.90625 -23.03125 C 1.257812 -23.09375 1.570312 -22.988281 1.84375 -22.71875 C 2.125 -22.445312 2.289062 -22.097656 2.34375 -21.671875 C 2.40625 -21.191406 2.4375 -20.695312 2.4375 -20.1875 C 2.4375 -19.675781 2.46875 -19.179688 2.53125 -18.703125 C 5.601562 -24.117188 8.113281 -28.554688 10.0625 -32.015625 C 12.019531 -35.484375 13.554688 -38.285156 14.671875 -40.421875 C 15.785156 -42.554688 16.585938 -44.316406 17.078125 -45.703125 C 17.671875 -47.390625 18.507812 -48.742188 19.59375 -49.765625 C 20.6875 -50.796875 22.046875 -51.3125 23.671875 -51.3125 C 25.234375 -51.3125 26.421875 -51.023438 27.234375 -50.453125 C 28.046875 -49.878906 28.300781 -48.804688 28 -47.234375 C 27.820312 -46.335938 27.519531 -45.40625 27.09375 -44.4375 C 26.675781 -43.476562 26.078125 -42.484375 25.296875 -41.453125 C 26.679688 -39.109375 27.6875 -36.550781 28.3125 -33.78125 C 28.945312 -31.007812 29.351562 -28.328125 29.53125 -25.734375 C 29.71875 -23.148438 29.75 -20.925781 29.625 -19.0625 C 29.382812 -15.382812 28.859375 -12.460938 28.046875 -10.296875 C 27.234375 -8.128906 26.316406 -6.351562 25.296875 -4.96875 C 27.035156 -5.382812 28.835938 -6.164062 30.703125 -7.3125 C 32.578125 -8.457031 34.3125 -10.066406 35.90625 -12.140625 C 37.5 -14.222656 38.78125 -16.800781 39.75 -19.875 C 39.863281 -20.289062 40.101562 -20.378906 40.46875 -20.140625 Z M 11.46875 -3.96875 C 12.789062 -3.96875 14.066406 -4.660156 15.296875 -6.046875 C 16.535156 -7.429688 17.632812 -9.3125 18.59375 -11.6875 C 19.5625 -14.070312 20.269531 -16.738281 20.71875 -19.6875 C 21.175781 -22.644531 21.300781 -25.703125 21.09375 -28.859375 C 20.882812 -32.023438 20.207031 -35.050781 19.0625 -37.9375 L 3.96875 -10.03125 C 4.570312 -8.15625 5.460938 -6.675781 6.640625 -5.59375 C 7.816406 -4.507812 9.425781 -3.96875 11.46875 -3.96875 Z M 11.46875 -3.96875 "/></g></g></g><g fill="#181b13" fill-opacity="1"><g transform="translate(114.9227, 89.905733)"><g><path d="M 27.734375 -20.140625 C 29.660156 -18.816406 30.351562 -17.28125 29.8125 -15.53125 C 28.125 -10.414062 26 -6.304688 23.4375 -3.203125 C 20.875 -0.109375 17.367188 1.4375 12.921875 1.4375 C 8.035156 1.4375 4.734375 -0.546875 3.015625 -4.515625 C 1.304688 -8.492188 1.472656 -13.765625 3.515625 -20.328125 C 4.785156 -24.234375 5.882812 -27.601562 6.8125 -30.4375 C 7.75 -33.269531 8.640625 -35.953125 9.484375 -38.484375 L 8.765625 -38.484375 C 7.140625 -38.421875 5.875 -39.082031 4.96875 -40.46875 C 4.0625 -41.851562 3.457031 -43.175781 3.15625 -44.4375 C 3.101562 -44.863281 3.238281 -45.164062 3.5625 -45.34375 C 3.894531 -45.519531 4.273438 -45.609375 4.703125 -45.609375 C 5.484375 -45.609375 6.28125 -45.59375 7.09375 -45.5625 C 7.90625 -45.539062 8.882812 -45.53125 10.03125 -45.53125 L 11.75 -45.53125 C 12.34375 -47.457031 12.972656 -49.53125 13.640625 -51.75 C 14.304688 -53.976562 15.03125 -56.476562 15.8125 -59.25 C 15.988281 -59.851562 16.378906 -60.15625 16.984375 -60.15625 C 19.753906 -60.15625 21.695312 -59.238281 22.8125 -57.40625 C 23.925781 -55.570312 23.789062 -52.15625 22.40625 -47.15625 C 22.34375 -46.914062 22.28125 -46.703125 22.21875 -46.515625 C 22.15625 -46.335938 22.097656 -46.128906 22.046875 -45.890625 L 22.9375 -45.890625 C 24.925781 -45.890625 26.476562 -45.347656 27.59375 -44.265625 C 28.707031 -43.179688 29.476562 -41.972656 29.90625 -40.640625 C 30.019531 -40.222656 29.957031 -39.894531 29.71875 -39.65625 C 29.476562 -39.414062 29.117188 -39.296875 28.640625 -39.296875 L 22.9375 -39.109375 C 22.519531 -39.109375 22.054688 -39.09375 21.546875 -39.0625 C 21.035156 -39.03125 20.535156 -39.015625 20.046875 -39.015625 C 19.453125 -36.972656 18.867188 -35.125 18.296875 -33.46875 C 17.722656 -31.8125 17.148438 -30.15625 16.578125 -28.5 C 16.003906 -26.84375 15.367188 -24.972656 14.671875 -22.890625 C 13.984375 -20.816406 13.1875 -18.363281 12.28125 -15.53125 C 11.195312 -12.101562 11.109375 -9.664062 12.015625 -8.21875 C 12.921875 -6.769531 14.273438 -6.046875 16.078125 -6.046875 C 17.046875 -6.046875 18.128906 -6.316406 19.328125 -6.859375 C 20.535156 -7.398438 21.800781 -8.632812 23.125 -10.5625 C 24.445312 -12.488281 25.742188 -15.5625 27.015625 -19.78125 C 27.128906 -20.257812 27.367188 -20.378906 27.734375 -20.140625 Z M 27.734375 -20.140625 "/></g></g></g><g fill="#181b13" fill-opacity="1"><g transform="translate(138.405295, 89.905733)"><g/></g></g><g fill="#181b13" fill-opacity="1"><g transform="translate(160.984719, 89.905733)"><g><path d="M 9.390625 0 C 6.921875 -0.300781 5.113281 -1.398438 3.96875 -3.296875 C 2.832031 -5.191406 2.5625 -7.253906 3.15625 -9.484375 L 15.453125 -55.640625 C 14.722656 -56.484375 14.144531 -57.476562 13.71875 -58.625 C 13.300781 -59.769531 13.003906 -60.851562 12.828125 -61.875 C 12.765625 -62.351562 12.898438 -62.757812 13.234375 -63.09375 C 13.566406 -63.425781 13.972656 -63.53125 14.453125 -63.40625 L 17.4375 -63.234375 L 19.875 -63.234375 C 22.757812 -63.234375 25.148438 -63.351562 27.046875 -63.59375 C 28.953125 -63.832031 30.640625 -64.070312 32.109375 -64.3125 C 33.585938 -64.550781 35.078125 -64.671875 36.578125 -64.671875 C 38.742188 -64.671875 40.398438 -63.976562 41.546875 -62.59375 C 42.691406 -61.207031 43.503906 -59.644531 43.984375 -57.90625 C 44.109375 -57.414062 44.035156 -56.988281 43.765625 -56.625 C 43.492188 -56.269531 43.117188 -56.09375 42.640625 -56.09375 L 36.859375 -55.90625 C 35.523438 -55.851562 33.773438 -55.71875 31.609375 -55.5 C 29.441406 -55.289062 27.304688 -55.035156 25.203125 -54.734375 L 24.9375 -53.5625 L 18.515625 -29.53125 L 23.296875 -30.078125 C 25.890625 -30.378906 28.054688 -29.894531 29.796875 -28.625 C 31.546875 -27.363281 32.421875 -25.710938 32.421875 -23.671875 C 32.421875 -23.003906 32.03125 -22.609375 31.25 -22.484375 L 16.34375 -21.140625 L 10.9375 -0.90625 C 10.75 -0.175781 10.234375 0.125 9.390625 0 Z M 9.390625 0 "/></g></g></g><g fill="#181b13" fill-opacity="1"><g transform="translate(195.12481, 89.905733)"><g><path d="M 17.96875 1.265625 C 13.394531 1.984375 9.78125 1.410156 7.125 -0.453125 C 4.476562 -2.316406 2.882812 -5.296875 2.34375 -9.390625 C 1.800781 -13.484375 2.40625 -18.484375 4.15625 -24.390625 C 5.539062 -28.898438 7.222656 -32.828125 9.203125 -36.171875 C 11.191406 -39.515625 13.539062 -42.054688 16.25 -43.796875 C 18.96875 -45.546875 22.039062 -46.273438 25.46875 -45.984375 C 28.363281 -47.003906 30.863281 -47.046875 32.96875 -46.109375 C 35.070312 -45.179688 36.738281 -43.523438 37.96875 -41.140625 C 39.207031 -38.765625 39.875 -35.84375 39.96875 -32.375 C 40.0625 -28.914062 39.503906 -25.140625 38.296875 -21.046875 C 36.191406 -13.816406 33.617188 -8.304688 30.578125 -4.515625 C 27.535156 -0.722656 23.332031 1.203125 17.96875 1.265625 Z M 15.453125 -3.4375 C 17.429688 -2.945312 19.113281 -3.257812 20.5 -4.375 C 21.882812 -5.488281 23.207031 -7.488281 24.46875 -10.375 C 25.738281 -13.269531 27.128906 -17.1875 28.640625 -22.125 C 29.296875 -24.289062 29.789062 -26.488281 30.125 -28.71875 C 30.457031 -30.945312 30.503906 -32.992188 30.265625 -34.859375 C 30.023438 -36.734375 29.390625 -38.238281 28.359375 -39.375 C 27.335938 -40.519531 25.832031 -41.09375 23.84375 -41.09375 C 21.738281 -40.789062 19.976562 -39.179688 18.5625 -36.265625 C 17.144531 -33.347656 15.5625 -29.023438 13.8125 -23.296875 C 12.976562 -20.410156 12.378906 -17.582031 12.015625 -14.8125 C 11.648438 -12.039062 11.722656 -9.644531 12.234375 -7.625 C 12.742188 -5.613281 13.816406 -4.21875 15.453125 -3.4375 Z M 15.453125 -3.4375 "/></g></g></g><g fill="#181b13" fill-opacity="1"><g transform="translate(234.774291, 89.905733)"><g><path d="M 17.96875 1.265625 C 13.394531 1.984375 9.78125 1.410156 7.125 -0.453125 C 4.476562 -2.316406 2.882812 -5.296875 2.34375 -9.390625 C 1.800781 -13.484375 2.40625 -18.484375 4.15625 -24.390625 C 5.539062 -28.898438 7.222656 -32.828125 9.203125 -36.171875 C 11.191406 -39.515625 13.539062 -42.054688 16.25 -43.796875 C 18.96875 -45.546875 22.039062 -46.273438 25.46875 -45.984375 C 28.363281 -47.003906 30.863281 -47.046875 32.96875 -46.109375 C 35.070312 -45.179688 36.738281 -43.523438 37.96875 -41.140625 C 39.207031 -38.765625 39.875 -35.84375 39.96875 -32.375 C 40.0625 -28.914062 39.503906 -25.140625 38.296875 -21.046875 C 36.191406 -13.816406 33.617188 -8.304688 30.578125 -4.515625 C 27.535156 -0.722656 23.332031 1.203125 17.96875 1.265625 Z M 15.453125 -3.4375 C 17.429688 -2.945312 19.113281 -3.257812 20.5 -4.375 C 21.882812 -5.488281 23.207031 -7.488281 24.46875 -10.375 C 25.738281 -13.269531 27.128906 -17.1875 28.640625 -22.125 C 29.296875 -24.289062 29.789062 -26.488281 30.125 -28.71875 C 30.457031 -30.945312 30.503906 -32.992188 30.265625 -34.859375 C 30.023438 -36.734375 29.390625 -38.238281 28.359375 -39.375 C 27.335938 -40.519531 25.832031 -41.09375 23.84375 -41.09375 C 21.738281 -40.789062 19.976562 -39.179688 18.5625 -36.265625 C 17.144531 -33.347656 15.5625 -29.023438 13.8125 -23.296875 C 12.976562 -20.410156 12.378906 -17.582031 12.015625 -14.8125 C 11.648438 -12.039062 11.722656 -9.644531 12.234375 -7.625 C 12.742188 -5.613281 13.816406 -4.21875 15.453125 -3.4375 Z M 15.453125 -3.4375 "/></g></g></g><g fill="#181b13" fill-opacity="1"><g transform="translate(274.423772, 89.905733)"><g><path d="M 47.78125 -20.140625 C 49.707031 -18.941406 50.398438 -17.40625 49.859375 -15.53125 C 48.171875 -10.414062 46.046875 -6.304688 43.484375 -3.203125 C 40.929688 -0.109375 37.425781 1.4375 32.96875 1.4375 C 30.195312 1.4375 27.984375 1.046875 26.328125 0.265625 C 24.671875 -0.515625 23.601562 -1.925781 23.125 -3.96875 C 22.34375 -2.769531 21.5 -1.789062 20.59375 -1.03125 C 19.6875 -0.28125 18.8125 0.0625 17.96875 0 C 13.695312 1.75 10.207031 1.804688 7.5 0.171875 C 4.789062 -1.453125 3.101562 -4.414062 2.4375 -8.71875 C 1.769531 -13.019531 2.34375 -18.242188 4.15625 -24.390625 C 5.539062 -28.898438 7.222656 -32.828125 9.203125 -36.171875 C 11.191406 -39.515625 13.539062 -42.054688 16.25 -43.796875 C 18.96875 -45.546875 22.039062 -46.273438 25.46875 -45.984375 C 26.675781 -46.273438 27.878906 -46.132812 29.078125 -45.5625 C 30.285156 -45 31.28125 -44.023438 32.0625 -42.640625 L 39.109375 -66.390625 C 39.296875 -66.992188 39.6875 -67.296875 40.28125 -67.296875 C 42.988281 -67.296875 44.8125 -66.359375 45.75 -64.484375 C 46.6875 -62.617188 46.460938 -59.21875 45.078125 -54.28125 L 34.140625 -15.53125 C 33.179688 -12.039062 32.820312 -9.585938 33.0625 -8.171875 C 33.300781 -6.753906 34.320312 -6.046875 36.125 -6.046875 C 37.09375 -6.046875 38.175781 -6.316406 39.375 -6.859375 C 40.582031 -7.398438 41.847656 -8.648438 43.171875 -10.609375 C 44.503906 -12.566406 45.800781 -15.65625 47.0625 -19.875 C 47.175781 -20.289062 47.414062 -20.378906 47.78125 -20.140625 Z M 15.453125 -4.609375 C 16.535156 -4.367188 17.644531 -4.804688 18.78125 -5.921875 C 19.925781 -7.035156 21.007812 -8.566406 22.03125 -10.515625 C 23.0625 -12.472656 23.847656 -14.566406 24.390625 -16.796875 C 24.503906 -17.335938 24.648438 -17.910156 24.828125 -18.515625 C 25.015625 -19.117188 25.195312 -19.722656 25.375 -20.328125 L 28.71875 -31.609375 C 29.320312 -34.265625 29.441406 -36.359375 29.078125 -37.890625 C 28.722656 -39.429688 27.703125 -40.203125 26.015625 -40.203125 C 23.960938 -40.203125 21.851562 -38.816406 19.6875 -36.046875 C 17.519531 -33.273438 15.5625 -29.023438 13.8125 -23.296875 C 12.976562 -20.410156 12.378906 -17.6875 12.015625 -15.125 C 11.648438 -12.570312 11.722656 -10.375 12.234375 -8.53125 C 12.742188 -6.695312 13.816406 -5.390625 15.453125 -4.609375 Z M 15.453125 -4.609375 "/></g></g></g></g></g></g></g></g></svg>